<mxfile host="app.diagrams.net" modified="2021-03-11T06:18:37.981Z" agent="5.0 (Macintosh; Intel Mac OS X 11_2_2) AppleWebKit/537.36 (KHTML, like Gecko) Chrome/89.0.4389.82 Safari/537.36" etag="dCifQJfGSWeeXXkY4IK_" version="14.4.5" type="github">
  <diagram id="3228e29e-7158-1315-38df-8450db1d8a1d" name="Page-1">
    <mxGraphModel dx="1426" dy="768" grid="1" gridSize="10" guides="1" tooltips="1" connect="1" arrows="1" fold="1" page="1" pageScale="1" pageWidth="1169" pageHeight="827" background="#114B5F" math="0" shadow="1">
      <root>
        <mxCell id="0" />
        <mxCell id="1" parent="0" />
        <mxCell id="IxZ-TT_wXNainTkpuHTq-21685" value="" style="shape=process;whiteSpace=wrap;html=1;backgroundOutline=1;rounded=1;sketch=0;fillColor=#e3c800;fontSize=15;align=center;strokeColor=none;fontColor=#FFFFFF;" vertex="1" parent="1">
          <mxGeometry x="896" y="571.14" width="33" height="10" as="geometry" />
        </mxCell>
        <mxCell id="21653" value="&lt;font style=&quot;font-size: 18px&quot;&gt;연체대출&lt;/font&gt;" style="ellipse;whiteSpace=wrap;html=1;aspect=fixed;shadow=0;glass=0;labelBackgroundColor=none;strokeColor=none;strokeWidth=2;fillColor=#F45B69;fontFamily=Helvetica;fontSize=25;fontColor=#E4FDE1;align=left;opacity=50;labelPosition=right;verticalLabelPosition=middle;verticalAlign=middle;rounded=1;" parent="1" vertex="1">
          <mxGeometry x="10.5" y="10" width="41" height="41" as="geometry" />
        </mxCell>
        <mxCell id="21654" value="B" style="ellipse;whiteSpace=wrap;html=1;aspect=fixed;shadow=0;glass=0;labelBackgroundColor=none;strokeColor=none;strokeWidth=2;fontFamily=Helvetica;fontSize=25;fontColor=#E4FDE1;align=left;opacity=50;labelPosition=right;verticalLabelPosition=middle;verticalAlign=middle;fillColor=#404040;rounded=1;" parent="1" vertex="1">
          <mxGeometry x="10.5" y="90" width="41" height="41" as="geometry" />
        </mxCell>
        <mxCell id="21655" value="&lt;font style=&quot;font-size: 18px&quot;&gt;가계여신&lt;/font&gt;" style="ellipse;whiteSpace=wrap;html=1;aspect=fixed;shadow=0;glass=0;labelBackgroundColor=none;strokeColor=none;strokeWidth=2;fontFamily=Helvetica;fontSize=25;fontColor=#E4FDE1;align=left;opacity=50;labelPosition=right;verticalLabelPosition=middle;verticalAlign=middle;fillColor=#FFFFFF;rounded=1;" parent="1" vertex="1">
          <mxGeometry x="10" y="330" width="80" height="80" as="geometry" />
        </mxCell>
        <mxCell id="21656" value="C" style="ellipse;whiteSpace=wrap;html=1;aspect=fixed;shadow=0;glass=0;labelBackgroundColor=none;strokeColor=none;strokeWidth=2;fontFamily=Helvetica;fontSize=25;fontColor=#E4FDE1;align=left;opacity=50;labelPosition=right;verticalLabelPosition=middle;verticalAlign=middle;fillColor=#67AB9F;rounded=1;" parent="1" vertex="1">
          <mxGeometry x="10.5" y="170" width="41" height="41" as="geometry" />
        </mxCell>
        <object label="&lt;font style=&quot;font-size: 18px&quot;&gt;주택&lt;br&gt;담보&lt;br&gt;대출&lt;/font&gt;" 주담대="주담대&#xa;" placeholders="1" id="21657">
          <mxCell style="ellipse;whiteSpace=wrap;html=1;aspect=fixed;shadow=0;glass=0;labelBackgroundColor=none;strokeColor=none;strokeWidth=2;fontFamily=Helvetica;fontSize=25;fontColor=#E4FDE1;align=left;opacity=50;labelPosition=right;verticalLabelPosition=middle;verticalAlign=middle;fillColor=#FFD966;rounded=1;" parent="1" vertex="1">
            <mxGeometry x="10.5" y="250" width="60" height="60" as="geometry" />
          </mxCell>
        </object>
        <mxCell id="21658" value="" style="group;fontColor=#E4FDE1;rounded=1;arcSize=7;labelBorderColor=#FFFFFF;shadow=1;" parent="1" vertex="1" connectable="0">
          <mxGeometry x="300" y="60" width="591" height="737" as="geometry" />
        </mxCell>
        <mxCell id="21662" value="" style="ellipse;whiteSpace=wrap;html=1;aspect=fixed;shadow=0;glass=0;strokeColor=none;strokeWidth=2;fontFamily=Helvetica;fontSize=25;fontColor=#E4FDE1;align=left;opacity=50;labelBackgroundColor=#114B5F;fillColor=#FFFFFF;rounded=1;" parent="21658" vertex="1">
          <mxGeometry x="85" y="89.42" width="440" height="440" as="geometry" />
        </mxCell>
        <mxCell id="21671" value="1,637조" style="text;html=1;strokeColor=none;fillColor=none;align=center;verticalAlign=middle;whiteSpace=wrap;shadow=1;labelBackgroundColor=none;fontSize=18;fontColor=#E4FDE1;rounded=1;" parent="21658" vertex="1">
          <mxGeometry x="265" y="109.42" width="80" height="20" as="geometry" />
        </mxCell>
        <mxCell id="21663" value="" style="ellipse;whiteSpace=wrap;html=1;aspect=fixed;shadow=0;glass=0;strokeColor=none;strokeWidth=2;fontFamily=Helvetica;fontSize=25;fontColor=#E4FDE1;align=left;opacity=50;labelBackgroundColor=#114B5F;fillColor=#FFD966;rounded=1;" parent="21658" vertex="1">
          <mxGeometry x="90.5" y="209.42000000000002" width="250" height="250" as="geometry" />
        </mxCell>
        <mxCell id="21670" value="873조" style="text;html=1;strokeColor=none;fillColor=none;align=center;verticalAlign=middle;whiteSpace=wrap;shadow=1;labelBackgroundColor=none;fontSize=18;fontColor=#E4FDE1;rounded=1;" parent="21658" vertex="1">
          <mxGeometry x="120.5" y="299.42" width="60" height="20" as="geometry" />
        </mxCell>
        <mxCell id="21661" value="" style="ellipse;whiteSpace=wrap;html=1;aspect=fixed;shadow=0;glass=0;strokeColor=none;strokeWidth=2;fillColor=#F45B69;fontFamily=Helvetica;fontSize=25;fontColor=#E4FDE1;align=left;opacity=50;labelBackgroundColor=#114B5F;rounded=1;" parent="21658" vertex="1">
          <mxGeometry x="245" y="399.13" width="131" height="130.29" as="geometry" />
        </mxCell>
        <mxCell id="21668" value="17.3조" style="text;html=1;strokeColor=none;fillColor=none;align=center;verticalAlign=middle;whiteSpace=wrap;shadow=1;labelBackgroundColor=none;fontSize=18;fontColor=#E4FDE1;rounded=1;" parent="21658" vertex="1">
          <mxGeometry x="280.5" y="455.28000000000003" width="60" height="18" as="geometry" />
        </mxCell>
        <mxCell id="IxZ-TT_wXNainTkpuHTq-21675" value="" style="html=1;aspect=fixed;strokeColor=none;shadow=0;align=center;verticalAlign=top;fillColor=#3B8DF1;shape=mxgraph.gcp2.cost_savings;rounded=1;" vertex="1" parent="21658">
          <mxGeometry x="281.9" y="10" width="46.2" height="70" as="geometry" />
        </mxCell>
        <mxCell id="IxZ-TT_wXNainTkpuHTq-21676" value="" style="shape=image;html=1;verticalAlign=top;verticalLabelPosition=bottom;labelBackgroundColor=#ffffff;imageAspect=0;aspect=fixed;image=https://cdn3.iconfinder.com/data/icons/user-avatars-1/512/users-2-128.png;rounded=1;" vertex="1" parent="21658">
          <mxGeometry x="272" y="480" width="77" height="77" as="geometry" />
        </mxCell>
        <mxCell id="IxZ-TT_wXNainTkpuHTq-21681" value="" style="aspect=fixed;perimeter=ellipsePerimeter;html=1;align=center;shadow=0;dashed=0;spacingTop=3;image;image=img/lib/active_directory/home.svg;rounded=1;" vertex="1" parent="21658">
          <mxGeometry x="60.93000000000001" y="319.41999999999996" width="59.57" height="57.79" as="geometry" />
        </mxCell>
        <mxCell id="IxZ-TT_wXNainTkpuHTq-21687" value="" style="endArrow=diamondThin;html=1;strokeColor=#FFFFFF;elbow=vertical;startArrow=diamondThin;startFill=0;exitX=0.25;exitY=1;exitDx=0;exitDy=0;entryX=0;entryY=0.75;entryDx=0;entryDy=0;curved=1;endFill=0;" edge="1" parent="21658" source="IxZ-TT_wXNainTkpuHTq-21681" target="IxZ-TT_wXNainTkpuHTq-21676">
          <mxGeometry width="50" height="50" relative="1" as="geometry">
            <mxPoint x="58" y="350" as="sourcePoint" />
            <mxPoint x="-383" y="507.75" as="targetPoint" />
            <Array as="points">
              <mxPoint x="58" y="519" />
            </Array>
          </mxGeometry>
        </mxCell>
        <mxCell id="IxZ-TT_wXNainTkpuHTq-21688" value="" style="shape=process;whiteSpace=wrap;html=1;backgroundOutline=1;rounded=1;sketch=0;fillColor=#e3c800;fontSize=15;align=center;strokeColor=none;fontColor=#FFFFFF;" vertex="1" parent="21658">
          <mxGeometry x="42" y="498" width="43.72" height="10" as="geometry" />
        </mxCell>
        <mxCell id="IxZ-TT_wXNainTkpuHTq-21689" value="&lt;font style=&quot;font-size: 22px&quot;&gt;Prop-Tech&lt;/font&gt;" style="text;html=1;align=center;verticalAlign=middle;resizable=0;points=[];autosize=1;fontSize=15;fontFamily=Lucida Console;fontStyle=1;fontColor=#FFFFFF;" vertex="1" parent="21658">
          <mxGeometry x="30.720000000000027" y="480" width="120" height="30" as="geometry" />
        </mxCell>
        <mxCell id="21660" value="" style="ellipse;whiteSpace=wrap;html=1;aspect=fixed;shadow=0;glass=0;strokeColor=none;strokeWidth=2;fontFamily=Helvetica;fontSize=25;fontColor=#E4FDE1;align=left;opacity=50;labelBackgroundColor=#114B5F;fillColor=#404040;rounded=1;" parent="1" vertex="1">
          <mxGeometry x="60" y="490" width="151" height="151" as="geometry" />
        </mxCell>
        <mxCell id="21669" value="B" style="text;html=1;strokeColor=none;fillColor=none;align=center;verticalAlign=middle;whiteSpace=wrap;shadow=1;labelBackgroundColor=none;fontSize=18;fontColor=#E4FDE1;rounded=1;" parent="1" vertex="1">
          <mxGeometry x="117.5" y="553.14" width="40" height="20" as="geometry" />
        </mxCell>
        <mxCell id="21659" value="" style="ellipse;whiteSpace=wrap;html=1;aspect=fixed;shadow=0;glass=0;strokeColor=none;strokeWidth=2;fontFamily=Helvetica;fontSize=25;fontColor=#E4FDE1;align=left;opacity=50;labelBackgroundColor=#114B5F;fillColor=#67AB9F;rounded=1;" parent="1" vertex="1">
          <mxGeometry x="170" y="571.34" width="97.5" height="97.5" as="geometry" />
        </mxCell>
        <mxCell id="21664" value="C" style="text;html=1;strokeColor=none;fillColor=none;align=center;verticalAlign=middle;whiteSpace=wrap;shadow=1;labelBackgroundColor=none;fontSize=18;fontColor=#E4FDE1;rounded=1;" parent="1" vertex="1">
          <mxGeometry x="198.75" y="610.09" width="40" height="20" as="geometry" />
        </mxCell>
        <mxCell id="IxZ-TT_wXNainTkpuHTq-21677" value="" style="shape=image;html=1;verticalAlign=top;verticalLabelPosition=bottom;labelBackgroundColor=#ffffff;imageAspect=0;aspect=fixed;image=https://cdn0.iconfinder.com/data/icons/citycons/150/Citycons_institution-128.png;rounded=1;" vertex="1" parent="1">
          <mxGeometry x="1020" y="300" width="140" height="140" as="geometry" />
        </mxCell>
        <mxCell id="IxZ-TT_wXNainTkpuHTq-21683" value="" style="endArrow=diamondThin;html=1;strokeColor=#FFFFFF;elbow=vertical;startArrow=diamondThin;startFill=0;exitX=0.5;exitY=1;exitDx=0;exitDy=0;entryX=1;entryY=0.75;entryDx=0;entryDy=0;curved=1;endFill=0;" edge="1" parent="1" source="IxZ-TT_wXNainTkpuHTq-21677" target="IxZ-TT_wXNainTkpuHTq-21676">
          <mxGeometry width="50" height="50" relative="1" as="geometry">
            <mxPoint x="940" y="510" as="sourcePoint" />
            <mxPoint x="990" y="460" as="targetPoint" />
            <Array as="points">
              <mxPoint x="1060" y="490" />
              <mxPoint x="1030" y="530" />
              <mxPoint x="900" y="590" />
            </Array>
          </mxGeometry>
        </mxCell>
        <mxCell id="IxZ-TT_wXNainTkpuHTq-21686" value="&lt;font style=&quot;font-size: 22px&quot;&gt;FinTech&lt;/font&gt;" style="text;html=1;align=center;verticalAlign=middle;resizable=0;points=[];autosize=1;fontSize=15;fontFamily=Lucida Console;fontStyle=1;fontColor=#FFFFFF;" vertex="1" parent="1">
          <mxGeometry x="891" y="553.14" width="90" height="30" as="geometry" />
        </mxCell>
      </root>
    </mxGraphModel>
  </diagram>
</mxfile>
